<?xml version="1.0" encoding="utf-8"?>
<!-- Generator: Adobe Illustrator 16.0.0, SVG Export Plug-In . SVG Version: 6.00 Build 0)  -->
<!DOCTYPE svg PUBLIC "-//W3C//DTD SVG 1.1//EN" "http://www.w3.org/Graphics/SVG/1.1/DTD/svg11.dtd">
<svg version="1.1" id="Calque_1" xmlns="http://www.w3.org/2000/svg" xmlns:xlink="http://www.w3.org/1999/xlink" x="0px" y="0px"
	 width="226.8px" height="226.8px" viewBox="0 0 226.8 226.8" style="enable-background:new 0 0 226.8 226.8;" xml:space="preserve"
	>
<style type="text/css">
<![CDATA[
	.st0{fill-rule:evenodd;clip-rule:evenodd;fill:#333333;}
]]>
</style>
<path class="st0" d="M101.6,109.6c2,0,3.8,0,5.6,0c9,0,18,0.2,27,0c1.9,0,4.6-1,5.3-2.4c0.7-1.4,0-4.2-1.1-5.8
	C118.7,72.2,98.8,43,78.9,13.9c-3.7-5.4-6.6-5.4-10.1,0.1c-18.5,28.9-36.9,57.8-55.3,86.7c-1.1,1.7-1.9,4.8-1.1,6.2
	c0.9,1.5,3.8,2.4,5.9,2.4c9.3,0.2,18.6,0.1,27.7,0.1c1.5,8.9,2.4,17.3,4.5,25.5c12,47,50.5,79.8,98.6,84.8
	c21.8,2.3,42.3-2.1,61.9-11.6c2.6-1.3,6-2.4,5.1-6.3c-1-4-4.4-3.3-7.4-3.1c-51.9,2.3-98.5-35.3-107.1-86.5
	C101.5,111.5,101.6,110.9,101.6,109.6z"/>
</svg>
