<?xml version="1.0" encoding="utf-8"?>
<!-- Generator: Adobe Illustrator 16.0.0, SVG Export Plug-In . SVG Version: 6.00 Build 0)  -->
<!DOCTYPE svg PUBLIC "-//W3C//DTD SVG 1.1//EN" "http://www.w3.org/Graphics/SVG/1.1/DTD/svg11.dtd">
<svg version="1.1" id="Calque_2" xmlns="http://www.w3.org/2000/svg" xmlns:xlink="http://www.w3.org/1999/xlink" x="0px" y="0px"
	 width="226.8px" height="226.8px" viewBox="0 0 226.8 226.8" style="enable-background:new 0 0 226.8 226.8;" xml:space="preserve"
	>
<style type="text/css">
<![CDATA[
	.st0{fill-rule:evenodd;clip-rule:evenodd;fill:none;}
	.st1{fill-rule:evenodd;clip-rule:evenodd;fill:#FFFFFF;}
	.st2{fill-rule:evenodd;clip-rule:evenodd;fill:#333333;}
]]>
</style>
<rect x="1.9" y="1.4" class="st0" width="223" height="224"/>
<g>
	<circle class="st2" cx="113.9" cy="113.9" r="112.5"/>
	<path class="st1" d="M93.7,113.7c-9-9-17.7-17.6-26.3-26c6.7-6.7,13.2-13.2,19.7-19.8c8.4,8.6,17.1,17.5,26.1,26.6
		c9.3-9.4,18-18.2,26.5-26.8c6.6,6.6,13.1,13.1,19.5,19.6c-8.3,8.3-17,17-25.8,25.7c9.3,9.2,18.2,17.9,26.9,26.5
		c-7.2,7.2-13.7,13.7-20.2,20.2c-8.6-8.6-17.3-17.4-26-26.1c-9.1,9.1-17.8,17.9-26.3,26.4c-6.9-7-13.4-13.6-20.2-20.5
		C75.9,131.4,84.7,122.7,93.7,113.7z"/>
</g>
</svg>
